<svg width="12" height="12" viewBox="0 0 12 12" fill="none" xmlns="http://www.w3.org/2000/svg">
<path d="M8.58182 6.74378C8.67263 6.50111 8.71869 6.24399 8.71779 5.98489C8.71779 5.4096 8.48925 4.85786 8.08245 4.45107C7.67566 4.04427 7.12392 3.81573 6.54863 3.81573C6.29272 3.81603 6.03893 3.86208 5.79922 3.9517L6.30831 4.4766C6.3857 4.46422 6.46393 4.45788 6.5423 4.45763C6.94908 4.45678 7.33967 4.61691 7.62878 4.90306C7.91789 5.18921 8.08204 5.57813 8.08538 5.98489C8.08512 6.06326 8.07877 6.14149 8.06641 6.21888L8.58182 6.74378Z" fill="#C7D2D6"/>
<path d="M11.4593 5.83628C10.3937 3.86633 8.52493 2.67424 6.45696 2.67424C5.89391 2.67556 5.33464 2.76628 4.80005 2.94301L5.30914 3.45526C5.68411 3.35836 6.06967 3.30844 6.45696 3.30665C8.23718 3.30665 9.85615 4.29953 10.8206 5.97225C10.4668 6.59283 9.99779 7.14017 9.43876 7.58488L9.88777 8.03389C10.5347 7.51195 11.0721 6.86716 11.4688 6.13667L11.551 5.98489L11.4593 5.83628Z" fill="#C7D2D6"/>
<path d="M2.15658 2.12088L3.56685 3.53115C2.67544 4.10509 1.94691 4.89897 1.45145 5.83627L1.36923 5.98489L1.45145 6.13666C2.51705 8.10661 4.38581 9.2987 6.45379 9.2987C7.26095 9.29854 8.05762 9.11585 8.78421 8.76432L10.3652 10.3453L10.9186 9.87103L2.69729 1.64973L2.15658 2.12088ZM5.23956 5.20386L7.34232 7.30662C7.10473 7.45368 6.83122 7.53245 6.55181 7.53428C6.34878 7.53429 6.14776 7.49415 5.96031 7.41617C5.77286 7.33819 5.60268 7.22391 5.45956 7.07991C5.31644 6.93591 5.20321 6.76503 5.12638 6.5771C5.04956 6.38917 5.01065 6.18791 5.0119 5.98489C5.01546 5.7087 5.09417 5.4387 5.23956 5.20386ZM4.78107 4.74537C4.48524 5.16257 4.34658 5.67099 4.38965 6.18061C4.43271 6.69024 4.65472 7.16818 5.01636 7.52982C5.378 7.89147 5.85595 8.11347 6.36557 8.15654C6.87519 8.1996 7.38362 8.06094 7.80081 7.76511L8.30674 8.27104C7.72106 8.52139 7.09073 8.65047 6.45379 8.65048C4.67356 8.65048 3.0546 7.6576 2.09018 5.98489C2.55301 5.16536 3.21957 4.47919 4.02534 3.9928L4.78107 4.74537Z" fill="#C7D2D6"/>
</svg>
