<svg width="18" height="18" viewBox="0 0 18 18" fill="none" xmlns="http://www.w3.org/2000/svg">
<path fill-rule="evenodd" clip-rule="evenodd" d="M8.99999 0.565094C4.28303 0.565094 0.462494 4.38563 0.462494 9.10259C0.462494 12.8804 2.90635 16.0713 6.30001 17.2025C6.72688 17.2773 6.88696 17.0211 6.88696 16.797C6.88696 16.5942 6.87629 15.9219 6.87629 15.2069C4.73124 15.6018 4.17631 14.684 4.00556 14.2038C3.90951 13.9583 3.49331 13.2006 3.13046 12.9978C2.83165 12.8378 2.40478 12.4429 3.11979 12.4322C3.79212 12.4215 4.27235 13.0512 4.43243 13.3073C5.20081 14.5986 6.42807 14.2358 6.91898 14.0117C6.99368 13.4567 7.21779 13.0832 7.46324 12.8698C5.56365 12.6563 3.57868 11.92 3.57868 8.65438C3.57868 7.72592 3.90951 6.95755 4.45378 6.35992C4.3684 6.14648 4.06959 5.27139 4.53915 4.09748C4.53915 4.09748 5.25417 3.87338 6.88696 4.97258C7.56996 4.78048 8.29565 4.68444 9.02134 4.68444C9.74703 4.68444 10.4727 4.78048 11.1557 4.97258C12.7885 3.8627 13.5035 4.09748 13.5035 4.09748C13.9731 5.27139 13.6743 6.14648 13.5889 6.35992C14.1332 6.95755 14.464 7.71525 14.464 8.65438C14.464 11.9306 12.4684 12.6563 10.5688 12.8698C10.8782 13.1366 11.145 13.6488 11.145 14.4492C11.145 15.5911 11.1344 16.5089 11.1344 16.797C11.1344 17.0211 11.2944 17.2879 11.7213 17.2025C13.4161 16.6303 14.8889 15.5411 15.9322 14.088C16.9755 12.635 17.537 10.8914 17.5375 9.10259C17.5375 4.38563 13.717 0.565094 8.99999 0.565094Z" fill="black"/>
</svg>
